
<svg xmlns="http://www.w3.org/2000/svg" version="1.1" width="300px" height="157px" style="shape-rendering:geometricPrecision; text-rendering:geometricPrecision; image-rendering:optimizeQuality; fill-rule:evenodd; clip-rule:evenodd" xmlns:xlink="http://www.w3.org/1999/xlink">
<g><path style="opacity:0.019" fill="#fffcff" d="M 193.5,35.5 C 197.981,34.3516 202.648,34.1849 207.5,35C 202.845,35.4992 198.179,35.6658 193.5,35.5 Z"/></g>
<g><path style="opacity:0.881" fill="#fefefe" d="M 77.5,50.5 C 46.8333,50.8333 46.8333,51.1667 77.5,51.5C 70.3524,52.4916 63.0191,52.825 55.5,52.5C 55.3359,55.1873 55.5026,57.854 56,60.5C 56.8281,51.1901 57.3281,51.1901 57.5,60.5C 65.5069,60.3336 73.5069,60.5003 81.5,61C 45.5062,61.833 45.5062,62.333 81.5,62.5C 81.5,67.1667 81.5,71.8333 81.5,76.5C 45.5,76.8333 45.5,77.1667 81.5,77.5C 73.6841,78.4924 65.6841,78.8257 57.5,78.5C 57.5,82.8333 57.5,87.1667 57.5,91.5C 66.1731,91.3336 74.8397,91.5002 83.5,92C 44.8391,92.833 44.8391,93.333 83.5,93.5C 83.5,98.1667 83.5,102.833 83.5,107.5C 68.8333,107.5 54.1667,107.5 39.5,107.5C 39.5,83.8333 39.5,60.1667 39.5,36.5C 52.1667,36.5 64.8333,36.5 77.5,36.5C 77.5,41.1667 77.5,45.8333 77.5,50.5 Z"/></g>
<g><path style="opacity:0.936" fill="#fef9fe" d="M 209.5,74.5 C 210.167,74.5 210.5,74.1667 210.5,73.5C 211.167,73.5 211.5,73.1667 211.5,72.5C 213.749,71.9202 215.415,70.5869 216.5,68.5C 217.167,68.5 217.5,68.1667 217.5,67.5C 218.167,67.5 218.5,67.1667 218.5,66.5C 219.167,66.5 219.5,66.1667 219.5,65.5C 222.003,63.1673 224.669,61.0007 227.5,59C 233.167,58.3333 238.833,58.3333 244.5,59C 243.29,60.0391 242.29,61.2058 241.5,62.5C 240.833,62.5 240.5,62.8333 240.5,63.5C 239.833,63.5 239.5,63.8333 239.5,64.5C 238.833,64.5 238.5,64.8333 238.5,65.5C 237.833,65.5 237.5,65.8333 237.5,66.5C 236.833,66.5 236.5,66.8333 236.5,67.5C 235.833,67.5 235.5,67.8333 235.5,68.5C 232.891,69.4431 230.891,71.1097 229.5,73.5C 228.833,73.5 228.5,73.8333 228.5,74.5C 227.833,74.5 227.5,74.8333 227.5,75.5C 226.833,75.5 226.5,75.8333 226.5,76.5C 225.833,76.5 225.5,76.8333 225.5,77.5C 224.833,77.5 224.5,77.8333 224.5,78.5C 223.833,78.5 223.5,78.8333 223.5,79.5C 222.833,79.5 222.5,79.8333 222.5,80.5C 221.833,80.5 221.5,80.8333 221.5,81.5C 220.167,81.8333 220.167,82.1667 221.5,82.5C 221.5,83.1667 221.833,83.5 222.5,83.5C 222.5,84.1667 222.833,84.5 223.5,84.5C 223.5,85.1667 223.833,85.5 224.5,85.5C 224.5,86.1667 224.833,86.5 225.5,86.5C 225.5,87.1667 225.833,87.5 226.5,87.5C 226.5,88.1667 226.833,88.5 227.5,88.5C 227.5,89.1667 227.833,89.5 228.5,89.5C 228.5,90.1667 228.833,90.5 229.5,90.5C 229.5,91.1667 229.833,91.5 230.5,91.5C 230.5,92.1667 230.833,92.5 231.5,92.5C 231.5,93.1667 231.833,93.5 232.5,93.5C 232.5,94.1667 232.833,94.5 233.5,94.5C 233.5,95.1667 233.833,95.5 234.5,95.5C 234.5,96.1667 234.833,96.5 235.5,96.5C 235.5,97.1667 235.833,97.5 236.5,97.5C 236.5,98.1667 236.833,98.5 237.5,98.5C 237.5,99.1667 237.833,99.5 238.5,99.5C 238.5,100.167 238.833,100.5 239.5,100.5C 241.167,102.833 243.167,104.833 245.5,106.5C 239.69,107.49 233.69,107.823 227.5,107.5C 227.167,106.5 226.5,105.833 225.5,105.5C 225.158,104.662 224.492,104.328 223.5,104.5C 219.934,99.4266 215.768,94.7599 211,90.5C 210.283,91.0442 209.783,91.7109 209.5,92.5C 208.833,92.5 208.5,92.8333 208.5,93.5C 207.514,97.97 207.181,102.637 207.5,107.5C 202.57,107.803 197.737,107.469 193,106.5C 192.5,83.169 192.333,59.8357 192.5,36.5C 197.5,36.5 202.5,36.5 207.5,36.5C 207.333,49.8375 207.5,63.1708 208,76.5C 208.717,75.9558 209.217,75.2891 209.5,74.5 Z M 214.5,68.5 C 215.167,68.5 215.833,68.5 216.5,68.5C 215.415,70.5869 213.749,71.9202 211.5,72.5C 212.5,71.1667 213.5,69.8333 214.5,68.5 Z M 223.5,104.5 C 219.108,100.103 214.442,96.1028 209.5,92.5C 209.783,91.7109 210.283,91.0442 211,90.5C 215.768,94.7599 219.934,99.4266 223.5,104.5 Z M 225.5,105.5 C 226.5,105.833 227.167,106.5 227.5,107.5C 226.833,107.5 226.167,107.5 225.5,107.5C 225.5,106.833 225.5,106.167 225.5,105.5 Z"/></g>
<g><path style="opacity:0.016" fill="#fefffe" d="M 210.5,73.5 C 209.833,73.5 209.5,73.8333 209.5,74.5C 208.34,62.0067 208.173,49.3401 209,36.5C 209.186,48.9086 209.686,61.242 210.5,73.5 Z"/></g>
<g><path style="opacity:0.993" fill="#f8f5f8" d="M 264.5,42.5 C 264.5,43.1667 264.5,43.8333 264.5,44.5C 263.596,45.209 263.263,46.209 263.5,47.5C 262.833,47.5 262.5,47.8333 262.5,48.5C 261.833,48.5 261.5,48.8333 261.5,49.5C 260.833,49.5 260.5,49.8333 260.5,50.5C 259.508,50.3284 258.842,50.6618 258.5,51.5C 251.871,52.354 247.871,49.5207 246.5,43C 248.421,37.0409 252.421,34.7076 258.5,36C 261.442,37.4361 263.442,39.6028 264.5,42.5 Z"/></g>
<g><path style="opacity:0.015" fill="#f9f9f9" d="M 78.5,50.5 C 78.3342,45.8215 78.5008,41.1548 79,36.5C 79.8151,41.3522 79.6484,46.0189 78.5,50.5 Z"/></g>
<g><path style="opacity:0.004" fill="#fefffe" d="M 190.5,37.5 C 191.663,60.3297 191.83,83.3297 191,106.5C 190.5,83.5024 190.333,60.5024 190.5,37.5 Z"/></g>
<g><path style="opacity:0.01" fill="#f2f2f2" d="M 264.5,42.5 C 264.351,41.448 264.517,40.448 265,39.5C 265.74,40.7494 265.573,41.7494 264.5,42.5 Z"/></g>
<g><path style="opacity:0.004" fill="#fefffe" d="M 265.5,43.5 C 266.833,44.1667 266.833,44.1667 265.5,43.5 Z"/></g>
<g><path style="opacity:0.012" fill="#fefffe" d="M 264.5,44.5 C 264.833,44.5 265.167,44.5 265.5,44.5C 265.737,45.791 265.404,46.791 264.5,47.5C 264.5,46.5 264.5,45.5 264.5,44.5 Z"/></g>
<g><path style="opacity:0.016" fill="#bebfbe" d="M 263.5,47.5 C 263.833,47.5 264.167,47.5 264.5,47.5C 264.315,48.1701 263.981,48.1701 263.5,47.5 Z"/></g>
<g><path style="opacity:0.012" fill="#fefffe" d="M 262.5,48.5 C 262.833,48.5 263.167,48.5 263.5,48.5C 263.315,49.1701 262.981,49.1701 262.5,48.5 Z"/></g>
<g><path style="opacity:0.02" fill="#fefffe" d="M 261.5,49.5 C 261.833,49.5 262.167,49.5 262.5,49.5C 262.315,50.1701 261.981,50.1701 261.5,49.5 Z"/></g>
<g><path style="opacity:0.004" fill="#fefffe" d="M 77.5,50.5 C 77.8333,50.5 78.1667,50.5 78.5,50.5C 78.3147,51.1701 77.9813,51.1701 77.5,50.5 Z"/></g>
<g><path style="opacity:0.02" fill="#fefffe" d="M 260.5,50.5 C 260.833,50.5 261.167,50.5 261.5,50.5C 261.315,51.1701 260.981,51.1701 260.5,50.5 Z"/></g>
<g><path style="opacity:0.012" fill="#fefffe" d="M 258.5,52.5 C 258.5,52.1667 258.5,51.8333 258.5,51.5C 259.167,51.5 259.833,51.5 260.5,51.5C 260.158,52.3382 259.492,52.6716 258.5,52.5 Z"/></g>
<g><path style="opacity:0.02" fill="#eee5ed" d="M 258.5,52.5 C 256.712,53.6225 254.712,53.7891 252.5,53C 254.473,52.5045 256.473,52.3379 258.5,52.5 Z"/></g>
<g><path style="opacity:0.009" fill="#fefffe" d="M 159.5,56.5 C 161.288,55.3775 163.288,55.2109 165.5,56C 163.527,56.4955 161.527,56.6621 159.5,56.5 Z"/></g>
<g><path style="opacity:0.004" fill="#fefffe" d="M 86.5,57.5 C 91.3158,56.3503 96.3158,56.1837 101.5,57C 96.5111,57.4993 91.5111,57.6659 86.5,57.5 Z"/></g>
<g><path style="opacity:0.004" fill="#fefffe" d="M 122.5,57.5 C 126.646,56.353 130.98,56.1864 135.5,57C 131.179,57.499 126.846,57.6657 122.5,57.5 Z"/></g>
<g><path style="opacity:0.013" fill="#fefffe" d="M 154.5,57.5 C 155.601,56.4017 156.934,56.235 158.5,57C 157.207,57.49 155.873,57.6567 154.5,57.5 Z"/></g>
<g><path style="opacity:0.014" fill="#e9e4ff" d="M 170.5,57.5 C 169.127,57.6567 167.793,57.49 166.5,57C 168.066,56.235 169.399,56.4017 170.5,57.5 Z"/></g>
<g><path style="opacity:0.004" fill="#fefffe" d="M 226.5,57.5 C 231.985,56.3483 237.651,56.1816 243.5,57C 237.843,57.4994 232.176,57.6661 226.5,57.5 Z"/></g>
<g><path style="opacity:0.004" fill="#fefffe" d="M 248.5,57.5 C 252.981,56.3516 257.648,56.1849 262.5,57C 257.845,57.4992 253.179,57.6658 248.5,57.5 Z"/></g>
<g><path style="opacity:0.014" fill="#fefffe" d="M 170.5,58.5 C 170.5,58.1667 170.5,57.8333 170.5,57.5C 173.167,57.8333 173.167,58.1667 170.5,58.5 Z"/></g>
<g><path style="opacity:0.008" fill="#fefffe" d="M 226.5,57.5 C 225.833,58.1667 225.833,58.1667 226.5,57.5 Z"/></g>
<g><path style="opacity:0.961" fill="#fbfafc" d="M 111.5,77.5 C 112.596,81.2887 113.263,81.2887 113.5,77.5C 114.674,76.4863 115.34,75.153 115.5,73.5C 116.931,72.2196 117.598,70.5529 117.5,68.5C 119.438,65.5551 121.105,62.3884 122.5,59C 124.833,58.8333 127.167,58.6667 129.5,58.5C 132.269,58.5286 134.603,59.1952 136.5,60.5C 135.662,60.8417 135.328,61.5084 135.5,62.5C 134.662,62.8417 134.328,63.5084 134.5,64.5C 133.662,64.8417 133.328,65.5084 133.5,66.5C 132.662,66.8417 132.328,67.5084 132.5,68.5C 131.662,68.8417 131.328,69.5084 131.5,70.5C 130.662,70.8417 130.328,71.5084 130.5,72.5C 129.662,72.8417 129.328,73.5084 129.5,74.5C 128.662,74.8417 128.328,75.5084 128.5,76.5C 127.662,76.8417 127.328,77.5084 127.5,78.5C 126.662,78.8417 126.328,79.5084 126.5,80.5C 125.662,80.8417 125.328,81.5084 125.5,82.5C 124.662,82.8417 124.328,83.5084 124.5,84.5C 123.662,84.8417 123.328,85.5084 123.5,86.5C 122.596,87.209 122.263,88.209 122.5,89.5C 121.662,89.8417 121.328,90.5084 121.5,91.5C 120.662,91.8417 120.328,92.5084 120.5,93.5C 119.662,93.8417 119.328,94.5084 119.5,95.5C 118.662,95.8417 118.328,96.5084 118.5,97.5C 117.662,97.8417 117.328,98.5084 117.5,99.5C 116.662,99.8417 116.328,100.508 116.5,101.5C 115.662,101.842 115.328,102.508 115.5,103.5C 114.662,103.842 114.328,104.508 114.5,105.5C 113.9,106.9 112.9,107.9 111.5,108.5C 109.405,103.973 107.072,99.6392 104.5,95.5C 104.672,94.5084 104.338,93.8417 103.5,93.5C 98.339,82.5086 92.6723,71.8419 86.5,61.5C 86.5858,60.5041 86.2524,59.6708 85.5,59C 90.8333,58.3333 96.1667,58.3333 101.5,59C 104.735,65.3082 108.068,71.4749 111.5,77.5 Z M 117.5,68.5 C 117.598,70.5529 116.931,72.2196 115.5,73.5C 115.402,71.4471 116.069,69.7804 117.5,68.5 Z M 111.5,77.5 C 112.167,77.5 112.833,77.5 113.5,77.5C 113.263,81.2887 112.596,81.2887 111.5,77.5 Z"/></g>
<g><path style="opacity:0.991" fill="#fbfafb" d="M 170.5,58.5 C 176.929,61.2102 181.929,65.5435 185.5,71.5C 185.833,72.8333 186.167,74.1667 186.5,75.5C 185.5,75.8333 184.833,76.5 184.5,77.5C 183.833,77.5 183.5,77.8333 183.5,78.5C 182.508,78.3284 181.842,78.6618 181.5,79.5C 180.833,79.5 180.5,79.8333 180.5,80.5C 179.508,80.3284 178.842,80.6618 178.5,81.5C 176.246,82.1237 174.579,83.457 173.5,85.5C 170.883,86.7859 168.55,88.4525 166.5,90.5C 165.508,90.3284 164.842,90.6618 164.5,91.5C 163.833,91.5 163.5,91.8333 163.5,92.5C 162.711,92.7828 162.044,93.2828 161.5,94C 163.066,94.765 164.399,94.5983 165.5,93.5C 166.791,93.7373 167.791,93.404 168.5,92.5C 170.973,92.9118 172.306,91.9118 172.5,89.5C 173.552,89.3505 174.552,89.5172 175.5,90C 178.924,92.3797 181.924,95.213 184.5,98.5C 184.137,99.1835 183.804,99.8501 183.5,100.5C 182.833,100.5 182.5,100.833 182.5,101.5C 181.833,101.5 181.5,101.833 181.5,102.5C 180.833,102.5 180.5,102.833 180.5,103.5C 179.508,103.328 178.842,103.662 178.5,104.5C 177.833,104.5 177.5,104.833 177.5,105.5C 176.508,105.328 175.842,105.662 175.5,106.5C 174.209,106.263 173.209,106.596 172.5,107.5C 170.901,107.232 169.568,107.566 168.5,108.5C 160.9,109.183 153.9,107.516 147.5,103.5C 147.5,102.833 147.167,102.5 146.5,102.5C 145.833,101.167 144.833,100.167 143.5,99.5C 143.5,98.8333 143.167,98.5 142.5,98.5C 141.525,96.2048 140.192,94.2048 138.5,92.5C 134.695,72.6503 142.695,60.9837 162.5,57.5C 165.14,58.0951 167.807,58.4285 170.5,58.5 Z M 158.5,74.5 C 160.415,74.2155 162.081,74.5489 163.5,75.5C 162.833,75.5 162.5,75.8333 162.5,76.5C 160.973,76.427 159.973,77.0937 159.5,78.5C 157.77,79.0256 156.436,80.0256 155.5,81.5C 154.596,80.791 154.263,79.791 154.5,78.5C 155.5,76.8333 156.833,75.5 158.5,74.5 Z M 153.5,82.5 C 154.167,82.5 154.833,82.5 155.5,82.5C 154.779,84.3818 153.779,84.7152 152.5,83.5C 153.167,83.5 153.5,83.1667 153.5,82.5 Z M 172.5,89.5 C 172.306,91.9118 170.973,92.9118 168.5,92.5C 168.167,91.8333 167.833,91.1667 167.5,90.5C 168.496,90.4142 169.329,90.7476 170,91.5C 170.708,90.6195 171.542,89.9528 172.5,89.5 Z M 163.5,92.5 C 163.842,93.3382 164.508,93.6716 165.5,93.5C 164.399,94.5983 163.066,94.765 161.5,94C 162.044,93.2828 162.711,92.7828 163.5,92.5 Z"/></g>
<g><path style="opacity:0.004" fill="#4e4e4e" d="M 175.5,59.5 C 174.761,59.631 174.094,59.4643 173.5,59C 174.437,58.3083 175.103,58.475 175.5,59.5 Z"/></g>
<g><path style="opacity:0.958" fill="#fdfcfd" d="M 262.5,107.5 C 257.833,107.5 253.167,107.5 248.5,107.5C 248.5,91.1667 248.5,74.8333 248.5,58.5C 253.167,58.5 257.833,58.5 262.5,58.5C 262.5,74.8333 262.5,91.1667 262.5,107.5 Z"/></g>
<g><path style="opacity:0.004" fill="#fefffe" d="M 137.5,59.5 C 138.833,60.1667 138.833,60.1667 137.5,59.5 Z"/></g>
<g><path style="opacity:0.016" fill="#bebfff" d="M 175.5,59.5 C 176.833,60.1667 176.833,60.1667 175.5,59.5 Z"/></g>
<g><path style="opacity:0.015" fill="#fefffe" d="M 245.5,106.5 C 246.318,90.9074 246.818,75.2407 247,59.5C 247.667,75.5 247.667,91.5 247,107.5C 246.617,106.944 246.117,106.611 245.5,106.5 Z"/></g>
<g><path style="opacity:0.008" fill="#fefffe" d="M 263.5,107.5 C 263.333,91.4965 263.5,75.4965 264,59.5C 264.828,75.672 264.661,91.672 263.5,107.5 Z"/></g>
<g><path style="opacity:0.012" fill="#fefffe" d="M 136.5,60.5 C 136.833,60.5 137.167,60.5 137.5,60.5C 137.672,61.4916 137.338,62.1583 136.5,62.5C 136.5,61.8333 136.5,61.1667 136.5,60.5 Z"/></g>
<g><path style="opacity:0.012" fill="#c8c5ff" d="M 86.5,61.5 C 86.631,62.2389 86.4643,62.9056 86,63.5C 85.3083,62.5632 85.475,61.8966 86.5,61.5 Z"/></g>
<g><path style="opacity:0.012" fill="#fefffe" d="M 135.5,62.5 C 135.833,62.5 136.167,62.5 136.5,62.5C 136.672,63.4916 136.338,64.1583 135.5,64.5C 135.5,63.8333 135.5,63.1667 135.5,62.5 Z"/></g>
<g><path style="opacity:0.024" fill="#fefffe" d="M 241.5,62.5 C 242.833,63.1667 242.833,63.1667 241.5,62.5 Z"/></g>
<g><path style="opacity:0.024" fill="#fefffe" d="M 240.5,63.5 C 240.833,63.5 241.167,63.5 241.5,63.5C 241.315,64.1701 240.981,64.1701 240.5,63.5 Z"/></g>
<g><path style="opacity:0.016" fill="#f4f2f8" d="M 82.5,76.5 C 82.3342,71.8215 82.5008,67.1548 83,62.5C 83.8151,67.3522 83.6484,72.0189 82.5,76.5 Z"/></g>
<g><path style="opacity:0.014" fill="#fefffe" d="M 134.5,64.5 C 134.833,64.5 135.167,64.5 135.5,64.5C 135.672,65.4916 135.338,66.1583 134.5,66.5C 134.5,65.8333 134.5,65.1667 134.5,64.5 Z"/></g>
<g><path style="opacity:0.02" fill="#fefffe" d="M 239.5,64.5 C 239.833,64.5 240.167,64.5 240.5,64.5C 240.315,65.1701 239.981,65.1701 239.5,64.5 Z"/></g>
<g><path style="opacity:0.008" fill="#fff3ff" d="M 219.5,65.5 C 218.833,65.5 218.5,65.8333 218.5,66.5C 217.833,66.5 217.5,66.8333 217.5,67.5C 216.833,67.5 216.5,67.8333 216.5,68.5C 215.833,68.5 215.167,68.5 214.5,68.5C 215.648,65.9131 217.315,64.9131 219.5,65.5 Z"/></g>
<g><path style="opacity:0.024" fill="#fefffe" d="M 238.5,65.5 C 238.833,65.5 239.167,65.5 239.5,65.5C 239.315,66.1701 238.981,66.1701 238.5,65.5 Z"/></g>
<g><path style="opacity:0.014" fill="#fefffe" d="M 133.5,66.5 C 133.833,66.5 134.167,66.5 134.5,66.5C 134.672,67.4916 134.338,68.1583 133.5,68.5C 133.5,67.8333 133.5,67.1667 133.5,66.5 Z"/></g>
<g><path style="opacity:0.027" fill="#dadbfe" d="M 237.5,66.5 C 237.833,66.5 238.167,66.5 238.5,66.5C 238.315,67.1701 237.981,67.1701 237.5,66.5 Z"/></g>
<g><path style="opacity:0.02" fill="#fefffe" d="M 236.5,67.5 C 236.833,67.5 237.167,67.5 237.5,67.5C 237.315,68.1701 236.981,68.1701 236.5,67.5 Z"/></g>
<g><path style="opacity:0.02" fill="#cbcccb" d="M 235.5,68.5 C 235.833,68.5 236.167,68.5 236.5,68.5C 236.315,69.1701 235.981,69.1701 235.5,68.5 Z"/></g>
<g><path style="opacity:0.012" fill="#c8c5ff" d="M 132.5,68.5 C 132.833,68.5 133.167,68.5 133.5,68.5C 133.672,69.4916 133.338,70.1583 132.5,70.5C 132.5,69.8333 132.5,69.1667 132.5,68.5 Z"/></g>
<g><path style="opacity:0.008" fill="#fefffe" d="M 186.5,71.5 C 186.167,71.5 185.833,71.5 185.5,71.5C 185.833,68.8333 186.167,68.8333 186.5,71.5 Z"/></g>
<g><path style="opacity:0.012" fill="#c8c5ff" d="M 131.5,70.5 C 131.833,70.5 132.167,70.5 132.5,70.5C 132.672,71.4916 132.338,72.1583 131.5,72.5C 131.5,71.8333 131.5,71.1667 131.5,70.5 Z"/></g>
<g><path style="opacity:0.016" fill="#fefffe" d="M 186.5,71.5 C 187.833,72.1667 187.833,72.1667 186.5,71.5 Z"/></g>
<g><path style="opacity:0.012" fill="#c5c5c5" d="M 130.5,72.5 C 130.833,72.5 131.167,72.5 131.5,72.5C 131.672,73.4916 131.338,74.1583 130.5,74.5C 130.5,73.8333 130.5,73.1667 130.5,72.5 Z"/></g>
<g><path style="opacity:0.016" fill="#fefffe" d="M 158.5,74.5 C 158.5,74.1667 158.5,73.8333 158.5,73.5C 161.167,73.5 163.833,73.5 166.5,73.5C 166.5,73.8333 166.5,74.1667 166.5,74.5C 165.833,74.5 165.5,74.8333 165.5,75.5C 164.833,75.5 164.167,75.5 163.5,75.5C 162.081,74.5489 160.415,74.2155 158.5,74.5 Z"/></g>
<g><path style="opacity:0.016" fill="#fefffe" d="M 187.5,75.5 C 187.369,74.7611 187.536,74.0944 188,73.5C 188.692,74.4368 188.525,75.1034 187.5,75.5 Z"/></g>
<g><path style="opacity:0.006" fill="#ffdeff" d="M 229.5,73.5 C 231.793,74.3013 231.46,74.968 228.5,75.5C 228.5,75.1667 228.5,74.8333 228.5,74.5C 229.167,74.5 229.5,74.1667 229.5,73.5 Z"/></g>
<g><path style="opacity:0.016" fill="#fefffe" d="M 129.5,74.5 C 129.833,74.5 130.167,74.5 130.5,74.5C 130.672,75.4916 130.338,76.1583 129.5,76.5C 129.5,75.8333 129.5,75.1667 129.5,74.5 Z"/></g>
<g><path style="opacity:0.013" fill="#ededed" d="M 113.5,77.5 C 112.833,77.5 112.167,77.5 111.5,77.5C 112.167,74.8333 112.833,74.8333 113.5,77.5 Z"/></g>
<g><path style="opacity:0.004" fill="#fefffe" d="M 186.5,75.5 C 186.833,75.5 187.167,75.5 187.5,75.5C 187.315,76.1701 186.981,76.1701 186.5,75.5 Z"/></g>
<g><path style="opacity:0.02" fill="#fefffe" d="M 227.5,75.5 C 227.833,75.5 228.167,75.5 228.5,75.5C 228.315,76.1701 227.981,76.1701 227.5,75.5 Z"/></g>
<g><path style="opacity:0.004" fill="#fefffe" d="M 81.5,76.5 C 81.8333,76.5 82.1667,76.5 82.5,76.5C 82.3147,77.1701 81.9813,77.1701 81.5,76.5 Z"/></g>
<g><path style="opacity:0.02" fill="#fefffe" d="M 226.5,76.5 C 226.833,76.5 227.167,76.5 227.5,76.5C 227.315,77.1701 226.981,77.1701 226.5,76.5 Z"/></g>
<g><path style="opacity:0.016" fill="#d3d3d3" d="M 128.5,76.5 C 128.833,76.5 129.167,76.5 129.5,76.5C 129.672,77.4916 129.338,78.1583 128.5,78.5C 128.5,77.8333 128.5,77.1667 128.5,76.5 Z"/></g>
<g><path style="opacity:0.008" fill="#dfdfdf" d="M 162.5,76.5 C 162.5,76.8333 162.5,77.1667 162.5,77.5C 161.833,77.5 161.5,77.8333 161.5,78.5C 160.833,78.5 160.167,78.5 159.5,78.5C 159.973,77.0937 160.973,76.427 162.5,76.5 Z"/></g>
<g><path style="opacity:0.02" fill="#fefffe" d="M 184.5,77.5 C 185.833,78.1667 185.833,78.1667 184.5,77.5 Z"/></g>
<g><path style="opacity:0.024" fill="#fefffe" d="M 225.5,77.5 C 225.833,77.5 226.167,77.5 226.5,77.5C 226.315,78.1701 225.981,78.1701 225.5,77.5 Z"/></g>
<g><path style="opacity:0.012" fill="#fefffe" d="M 127.5,78.5 C 127.833,78.5 128.167,78.5 128.5,78.5C 128.672,79.4916 128.338,80.1583 127.5,80.5C 127.5,79.8333 127.5,79.1667 127.5,78.5 Z"/></g>
<g><path style="opacity:0.016" fill="#fefffe" d="M 153.5,78.5 C 153.833,78.5 154.167,78.5 154.5,78.5C 154.263,79.791 154.596,80.791 155.5,81.5C 155.5,81.8333 155.5,82.1667 155.5,82.5C 154.833,82.5 154.167,82.5 153.5,82.5C 153.5,81.1667 153.5,79.8333 153.5,78.5 Z"/></g>
<g><path style="opacity:0.016" fill="#fefffe" d="M 183.5,78.5 C 183.833,78.5 184.167,78.5 184.5,78.5C 184.315,79.1701 183.981,79.1701 183.5,78.5 Z"/></g>
<g><path style="opacity:0.024" fill="#fefffe" d="M 224.5,78.5 C 224.833,78.5 225.167,78.5 225.5,78.5C 225.315,79.1701 224.981,79.1701 224.5,78.5 Z"/></g>
<g><path style="opacity:0.008" fill="#a8a8a8" d="M 181.5,80.5 C 181.5,80.1667 181.5,79.8333 181.5,79.5C 182.167,79.5 182.833,79.5 183.5,79.5C 183.158,80.3382 182.492,80.6716 181.5,80.5 Z"/></g>
<g><path style="opacity:0.024" fill="#fefffe" d="M 223.5,79.5 C 223.833,79.5 224.167,79.5 224.5,79.5C 224.315,80.1701 223.981,80.1701 223.5,79.5 Z"/></g>
<g><path style="opacity:0.012" fill="#fefffe" d="M 126.5,80.5 C 126.833,80.5 127.167,80.5 127.5,80.5C 127.672,81.4916 127.338,82.1583 126.5,82.5C 126.5,81.8333 126.5,81.1667 126.5,80.5 Z"/></g>
<g><path style="opacity:0.02" fill="#fefffe" d="M 180.5,80.5 C 180.833,80.5 181.167,80.5 181.5,80.5C 181.315,81.1701 180.981,81.1701 180.5,80.5 Z"/></g>
<g><path style="opacity:0.008" fill="#f2f2f4" d="M 222.5,80.5 C 222.833,80.5 223.167,80.5 223.5,80.5C 228.403,86.9094 233.903,92.9094 240,98.5C 240.692,99.4368 240.525,100.103 239.5,100.5C 238.833,100.5 238.5,100.167 238.5,99.5C 237.833,99.5 237.5,99.1667 237.5,98.5C 236.833,98.5 236.5,98.1667 236.5,97.5C 235.833,97.5 235.5,97.1667 235.5,96.5C 234.833,96.5 234.5,96.1667 234.5,95.5C 233.833,95.5 233.5,95.1667 233.5,94.5C 232.833,94.5 232.5,94.1667 232.5,93.5C 231.833,93.5 231.5,93.1667 231.5,92.5C 230.833,92.5 230.5,92.1667 230.5,91.5C 229.833,91.5 229.5,91.1667 229.5,90.5C 228.833,90.5 228.5,90.1667 228.5,89.5C 227.833,89.5 227.5,89.1667 227.5,88.5C 226.833,88.5 226.5,88.1667 226.5,87.5C 225.833,87.5 225.5,87.1667 225.5,86.5C 224.833,86.5 224.5,86.1667 224.5,85.5C 223.833,85.5 223.5,85.1667 223.5,84.5C 222.833,84.5 222.5,84.1667 222.5,83.5C 221.833,83.5 221.5,83.1667 221.5,82.5C 221.5,82.1667 221.5,81.8333 221.5,81.5C 222.167,81.5 222.5,81.1667 222.5,80.5 Z"/></g>
<g><path style="opacity:0.012" fill="#fefffe" d="M 178.5,81.5 C 179.167,81.5 179.833,81.5 180.5,81.5C 179.833,82.8333 179.167,82.8333 178.5,81.5 Z"/></g>
<g><path style="opacity:0.012" fill="#fefffe" d="M 125.5,82.5 C 125.833,82.5 126.167,82.5 126.5,82.5C 126.672,83.4916 126.338,84.1583 125.5,84.5C 125.5,83.8333 125.5,83.1667 125.5,82.5 Z"/></g>
<g><path style="opacity:0.012" fill="#fefffe" d="M 124.5,84.5 C 124.833,84.5 125.167,84.5 125.5,84.5C 125.672,85.4916 125.338,86.1583 124.5,86.5C 124.5,85.8333 124.5,85.1667 124.5,84.5 Z"/></g>
<g><path style="opacity:0.024" fill="#fefffe" d="M 173.5,85.5 C 174.833,86.1667 174.833,86.1667 173.5,85.5 Z"/></g>
<g><path style="opacity:0.02" fill="#e5e5e5" d="M 123.5,86.5 C 123.833,86.5 124.167,86.5 124.5,86.5C 124.737,87.791 124.404,88.791 123.5,89.5C 123.5,88.5 123.5,87.5 123.5,86.5 Z"/></g>
<g><path style="opacity:0.012" fill="#fefffe" d="M 122.5,89.5 C 122.833,89.5 123.167,89.5 123.5,89.5C 123.672,90.4916 123.338,91.1583 122.5,91.5C 122.5,90.8333 122.5,90.1667 122.5,89.5 Z"/></g>
<g><path style="opacity:0.016" fill="#fefffe" d="M 166.5,90.5 C 166.833,90.5 167.167,90.5 167.5,90.5C 167.833,91.1667 168.167,91.8333 168.5,92.5C 167.209,92.2627 166.209,92.596 165.5,93.5C 164.508,93.6716 163.842,93.3382 163.5,92.5C 164.167,92.5 164.5,92.1667 164.5,91.5C 165.492,91.6716 166.158,91.3382 166.5,90.5 Z"/></g>
<g><path style="opacity:0.012" fill="#fefffe" d="M 121.5,91.5 C 121.833,91.5 122.167,91.5 122.5,91.5C 122.672,92.4916 122.338,93.1583 121.5,93.5C 121.5,92.8333 121.5,92.1667 121.5,91.5 Z"/></g>
<g><path style="opacity:0.015" fill="#fefffe" d="M 84.5,107.5 C 84.3342,102.821 84.5008,98.1548 85,93.5C 85.8151,98.3522 85.6484,103.019 84.5,107.5 Z"/></g>
<g><path style="opacity:0.012" fill="#fefffe" d="M 120.5,93.5 C 120.833,93.5 121.167,93.5 121.5,93.5C 121.672,94.4916 121.338,95.1583 120.5,95.5C 120.5,94.8333 120.5,94.1667 120.5,93.5 Z"/></g>
<g><path style="opacity:0.008" fill="#a8a8a8" d="M 138.5,92.5 C 138.631,93.2389 138.464,93.9056 138,94.5C 137.308,93.5632 137.475,92.8966 138.5,92.5 Z"/></g>
<g><path style="opacity:0.016" fill="#fefffe" d="M 208.5,93.5 C 209.833,98.1667 209.833,102.833 208.5,107.5C 208.5,102.833 208.5,98.1667 208.5,93.5 Z"/></g>
<g><path style="opacity:0.016" fill="#d5d3ff" d="M 103.5,93.5 C 103.5,94.1667 103.5,94.8333 103.5,95.5C 102.167,94.8333 102.167,94.1667 103.5,93.5 Z"/></g>
<g><path style="opacity:0.014" fill="#fefffe" d="M 119.5,95.5 C 119.833,95.5 120.167,95.5 120.5,95.5C 120.672,96.4916 120.338,97.1583 119.5,97.5C 119.5,96.8333 119.5,96.1667 119.5,95.5 Z"/></g>
<g><path style="opacity:0.016" fill="#d3d3d3" d="M 103.5,95.5 C 103.833,95.5 104.167,95.5 104.5,95.5C 104.167,98.1667 103.833,98.1667 103.5,95.5 Z"/></g>
<g><path style="opacity:0.012" fill="#fefffe" d="M 118.5,97.5 C 118.833,97.5 119.167,97.5 119.5,97.5C 119.672,98.4916 119.338,99.1583 118.5,99.5C 118.5,98.8333 118.5,98.1667 118.5,97.5 Z"/></g>
<g><path style="opacity:0.01" fill="#fefffe" d="M 142.5,98.5 C 143.167,98.5 143.5,98.8333 143.5,99.5C 143.253,101.975 142.587,101.975 141.5,99.5C 141.624,98.8933 141.957,98.56 142.5,98.5 Z"/></g>
<g><path style="opacity:0.014" fill="#fefffe" d="M 117.5,99.5 C 117.833,99.5 118.167,99.5 118.5,99.5C 118.672,100.492 118.338,101.158 117.5,101.5C 117.5,100.833 117.5,100.167 117.5,99.5 Z"/></g>
<g><path style="opacity:0.014" fill="#fefffe" d="M 116.5,101.5 C 116.833,101.5 117.167,101.5 117.5,101.5C 117.672,102.492 117.338,103.158 116.5,103.5C 116.5,102.833 116.5,102.167 116.5,101.5 Z"/></g>
<g><path style="opacity:0.004" fill="#e4b8ff" d="M 146.5,102.5 C 147.167,102.5 147.5,102.833 147.5,103.5C 146.503,104.713 145.503,104.546 144.5,103C 145.094,102.536 145.761,102.369 146.5,102.5 Z"/></g>
<g><path style="opacity:0.004" fill="#c17cff" d="M 183.5,100.5 C 184.718,102.332 184.051,103.332 181.5,103.5C 181.5,103.167 181.5,102.833 181.5,102.5C 182.167,102.5 182.5,102.167 182.5,101.5C 183.167,101.5 183.5,101.167 183.5,100.5 Z"/></g>
<g><path style="opacity:0.014" fill="#fefffe" d="M 115.5,103.5 C 115.833,103.5 116.167,103.5 116.5,103.5C 116.672,104.492 116.338,105.158 115.5,105.5C 115.5,104.833 115.5,104.167 115.5,103.5 Z"/></g>
<g><path style="opacity:0.024" fill="#d4d5d4" d="M 180.5,103.5 C 180.833,103.5 181.167,103.5 181.5,103.5C 181.315,104.17 180.981,104.17 180.5,103.5 Z"/></g>
<g><path style="opacity:0.016" fill="#fefffe" d="M 114.5,105.5 C 114.833,105.5 115.167,105.5 115.5,105.5C 115.167,108.167 114.833,108.167 114.5,105.5 Z"/></g>
<g><path style="opacity:0.004" fill="#858585" d="M 178.5,104.5 C 179.167,104.5 179.833,104.5 180.5,104.5C 180.027,105.906 179.027,106.573 177.5,106.5C 177.5,106.167 177.5,105.833 177.5,105.5C 178.167,105.5 178.5,105.167 178.5,104.5 Z"/></g>
<g><path style="opacity:0.009" fill="#fefffe" d="M 225.5,105.5 C 225.5,106.167 225.5,106.833 225.5,107.5C 223.067,106.452 223.067,105.786 225.5,105.5 Z"/></g>
<g><path style="opacity:0.012" fill="#fefffe" d="M 175.5,107.5 C 175.5,107.167 175.5,106.833 175.5,106.5C 176.167,106.5 176.833,106.5 177.5,106.5C 177.158,107.338 176.492,107.672 175.5,107.5 Z"/></g>
<g><path style="opacity:0.004" fill="#fefffe" d="M 83.5,107.5 C 83.8333,107.5 84.1667,107.5 84.5,107.5C 84.3147,108.17 83.9813,108.17 83.5,107.5 Z"/></g>
<g><path style="opacity:0.01" fill="#fefffe" d="M 172.5,108.5 C 172.5,108.167 172.5,107.833 172.5,107.5C 173.5,107.5 174.5,107.5 175.5,107.5C 174.791,108.404 173.791,108.737 172.5,108.5 Z"/></g>
<g><path style="opacity:0.004" fill="#fefffe" d="M 207.5,107.5 C 207.833,107.5 208.167,107.5 208.5,107.5C 208.315,108.17 207.981,108.17 207.5,107.5 Z"/></g>
<g><path style="opacity:0.004" fill="#fefffe" d="M 262.5,107.5 C 262.833,107.5 263.167,107.5 263.5,107.5C 263.315,108.17 262.981,108.17 262.5,107.5 Z"/></g>
<g><path style="opacity:0.011" fill="#fefffe" d="M 83.5,108.5 C 69.0058,109.661 54.3391,109.828 39.5,109C 54.1629,108.5 68.8295,108.333 83.5,108.5 Z"/></g>
<g><path style="opacity:0.004" fill="#fefffe" d="M 111.5,108.5 C 111.5,108.833 111.5,109.167 111.5,109.5C 110.83,109.019 110.83,108.685 111.5,108.5 Z"/></g>
<g><path style="opacity:0.012" fill="#f4f4f4" d="M 168.5,109.5 C 168.5,109.167 168.5,108.833 168.5,108.5C 169.833,108.5 171.167,108.5 172.5,108.5C 171.432,109.434 170.099,109.768 168.5,109.5 Z"/></g>
<g><path style="opacity:0.011" fill="#fefffe" d="M 207.5,108.5 C 203.019,109.648 198.352,109.815 193.5,109C 198.155,108.501 202.821,108.334 207.5,108.5 Z"/></g>
<g><path style="opacity:0.012" fill="#fcfcfc" d="M 227.5,109.5 C 232.985,108.348 238.651,108.182 244.5,109C 238.843,109.499 233.176,109.666 227.5,109.5 Z"/></g>
<g><path style="opacity:0.011" fill="#fefffe" d="M 262.5,108.5 C 258.019,109.648 253.352,109.815 248.5,109C 253.155,108.501 257.821,108.334 262.5,108.5 Z"/></g>
<g><path style="opacity:0.004" fill="#4e4e4e" d="M 111.5,109.5 C 112.239,109.369 112.906,109.536 113.5,110C 112.563,110.692 111.897,110.525 111.5,109.5 Z"/></g>
<g><path style="opacity:0.012" fill="#fefffe" d="M 168.5,109.5 C 165.36,110.641 162.027,110.808 158.5,110C 161.817,109.502 165.15,109.335 168.5,109.5 Z"/></g>
</svg>
